<svg width="291" height="62" viewBox="0 0 291 62" fill="none" xmlns="http://www.w3.org/2000/svg">
<rect width="291" height="62" rx="31" fill="#E4F963" fill-opacity="0.66"/>
<path d="M97.225 23.175L97.025 25.7L94 25.55H93L92.875 33.9L93.025 39H89.625L89.8 34.2L89.675 25.55H88.675L85.6 25.7L85.375 25.425L85.6 22.9H97.025L97.225 23.175ZM105.792 26.175C107.692 26.175 109.159 26.7167 110.192 27.8C111.225 28.8833 111.742 30.4167 111.742 32.4C111.742 34.5667 111.175 36.25 110.042 37.45C108.925 38.6333 107.342 39.225 105.292 39.225C103.409 39.225 101.95 38.675 100.917 37.575C99.8837 36.4583 99.367 34.8917 99.367 32.875C99.367 30.7417 99.9253 29.0917 101.042 27.925C102.159 26.7583 103.742 26.175 105.792 26.175ZM105.517 28.725C104.484 28.725 103.742 29.0083 103.292 29.575C102.859 30.125 102.642 31.0833 102.642 32.45C102.642 33.55 102.734 34.4167 102.917 35.05C103.117 35.6667 103.425 36.1083 103.842 36.375C104.275 36.6417 104.85 36.775 105.567 36.775C106.617 36.775 107.359 36.5 107.792 35.95C108.242 35.4 108.467 34.4333 108.467 33.05C108.467 31.95 108.367 31.0917 108.167 30.475C107.967 29.8417 107.659 29.3917 107.242 29.125C106.825 28.8583 106.25 28.725 105.517 28.725ZM121.434 26.35C122.868 26.35 123.968 26.6917 124.734 27.375C125.501 28.0417 125.884 29.0083 125.884 30.275C125.884 31.7417 125.376 32.9167 124.359 33.8C123.343 34.6833 121.984 35.125 120.284 35.125H119.009L119.134 39H115.984L116.109 35.25L115.984 26.375L121.434 26.35ZM120.859 32.875C121.443 32.6917 121.876 32.4167 122.159 32.05C122.443 31.6833 122.584 31.1917 122.584 30.575C122.584 29.9417 122.401 29.4667 122.034 29.15C121.684 28.8333 121.134 28.6583 120.384 28.625L119.134 28.675L119.059 32.8L120.859 32.875ZM146.338 23.7C146.338 22.825 147.038 22.1 147.913 22.1C148.788 22.1 149.513 22.825 149.513 23.7C149.513 24.575 148.788 25.275 147.913 25.275C147.038 25.275 146.338 24.575 146.338 23.7ZM144.688 23.7C144.688 25.5 146.113 26.925 147.913 26.925C149.713 26.925 151.163 25.5 151.163 23.7C151.163 21.9 149.713 20.45 147.913 20.45C146.113 20.45 144.688 21.9 144.688 23.7ZM129.138 31.875L132.138 34.975C132.588 34.325 133.188 33.45 133.763 32.65C134.763 31.3 136.538 28.825 137.513 27.575C138.238 26.675 138.763 26.625 139.563 27.425C140.463 28.35 142.688 30.775 144.138 32.5C145.613 34.225 147.738 36.8 149.413 38.875L152.163 35.925C150.238 33.875 147.688 31.1 146.013 29.325C144.513 27.7 142.588 25.7 140.913 24.125C138.963 22.3 137.488 22.575 136.013 24.325C134.288 26.375 132.338 28.825 131.213 29.975C130.438 30.725 129.888 31.275 129.138 31.875ZM157.313 27.425V31.35C158.238 31.275 159.913 31.225 161.338 31.225H174.763C175.813 31.225 177.088 31.325 177.688 31.35V27.425C177.038 27.475 175.938 27.575 174.763 27.575H161.338C160.038 27.575 158.213 27.5 157.313 27.425ZM199.524 19.8L197.424 20.675C198.324 21.95 198.899 23.025 199.624 24.6L201.799 23.675C201.224 22.525 200.224 20.85 199.524 19.8ZM202.949 18.6L200.824 19.475C201.749 20.725 202.374 21.7 203.174 23.275L205.299 22.325C204.699 21.225 203.724 19.6 202.949 18.6ZM188.649 19.325L186.849 22.075C188.499 23 191.099 24.675 192.499 25.65L194.349 22.9C193.049 21.975 190.299 20.225 188.649 19.325ZM184.024 37.075L185.899 40.35C188.099 39.95 191.699 38.7 194.249 37.275C198.324 34.9 201.874 31.75 204.174 28.275L202.249 24.875C200.274 28.45 196.774 31.875 192.524 34.25C189.824 35.75 186.824 36.6 184.024 37.075ZM184.799 25.025L182.999 27.775C184.674 28.675 187.274 30.35 188.699 31.35L190.524 28.55C189.249 27.65 186.499 25.925 184.799 25.025ZM208.949 31.55L211.999 34.675C212.424 34.025 212.999 33.125 213.574 32.3C214.649 30.875 216.424 28.4 217.424 27.15C218.149 26.225 218.624 26.1 219.499 27.075C220.674 28.4 222.549 30.775 224.099 32.625C225.674 34.475 227.799 36.9 229.599 38.6L232.174 35.6C229.799 33.475 227.674 31.225 226.074 29.475C224.599 27.875 222.599 25.3 220.899 23.65C219.074 21.875 217.449 22.05 215.699 24.025C214.149 25.825 212.224 28.4 211.074 29.6C210.324 30.4 209.699 30.975 208.949 31.55Z" fill="#5E5E5E"/>
<path d="M48.2929 30.2929C47.9024 30.6834 47.9024 31.3166 48.2929 31.7071L54.6569 38.0711C55.0474 38.4616 55.6805 38.4616 56.0711 38.0711C56.4616 37.6805 56.4616 37.0474 56.0711 36.6569L50.4142 31L56.0711 25.3431C56.4616 24.9526 56.4616 24.3195 56.0711 23.9289C55.6805 23.5384 55.0474 23.5384 54.6569 23.9289L48.2929 30.2929ZM69 30L49 30V32H69V30Z" fill="#5E5E5E"/>
</svg>
