<svg width="480" height="480" viewBox="0 0 480 480" fill="none" xmlns="http://www.w3.org/2000/svg">
<circle cx="240" cy="240" r="240" fill="url(#paint0_linear)"/>
<path d="M145.96 105.135L145.575 108.435H128.195L128.47 97.82L128.195 73.18H132.705L132.43 97.435L132.595 104.75H145.63L145.96 105.135ZM170.546 104.915L170.876 105.245L170.491 108.435H153.826L153.991 100.185L153.826 81.045H170.601L170.876 81.375L170.546 84.565L163.616 84.345L157.896 84.4L157.841 92.705L163.286 92.76L168.071 92.595L168.346 92.98L168.016 96.225L162.956 96.06L157.841 96.115L157.786 99.855L157.841 105.08L163.231 105.135L170.546 104.915ZM197.802 81.375L197.527 84.84L192.412 84.455H189.662L189.497 99.855L189.662 108.435H185.537L185.702 100.185L185.592 84.455H182.842L177.617 84.84L177.287 84.455L177.617 81.045H197.582L197.802 81.375ZM206.851 80.88C208.831 81.6133 209.821 82.9883 209.821 85.005C209.821 87.2783 208.483 89.735 205.806 92.375L204.156 91.22L204.101 90.835C205.641 89.185 206.411 87.645 206.411 86.215C206.411 84.7483 205.696 83.74 204.266 83.19V82.75C204.963 82.09 205.824 81.4667 206.851 80.88ZM227.256 80.77C229.492 80.77 231.729 81.21 233.966 82.09L233.251 86.16L232.591 86.325C231.564 85.5183 230.592 84.9317 229.676 84.565C228.759 84.1617 227.806 83.96 226.816 83.96C225.239 83.96 223.992 84.3817 223.076 85.225C222.159 86.0317 221.701 86.9667 221.701 88.03C221.701 89.0933 222.141 89.955 223.021 90.615C223.937 91.275 225.331 92.0083 227.201 92.815C228.851 93.5483 230.152 94.2083 231.106 94.795C232.096 95.3817 232.939 96.17 233.636 97.16C234.369 98.1133 234.736 99.2867 234.736 100.68C234.736 102.11 234.351 103.448 233.581 104.695C232.811 105.905 231.674 106.895 230.171 107.665C228.704 108.398 226.944 108.765 224.891 108.765C223.607 108.765 222.251 108.618 220.821 108.325C219.427 107.995 218.126 107.518 216.916 106.895L217.411 102.55L217.961 102.33C218.987 103.357 220.179 104.163 221.536 104.75C222.929 105.3 224.212 105.575 225.386 105.575C226.926 105.575 228.191 105.172 229.181 104.365C230.171 103.522 230.666 102.513 230.666 101.34C230.666 100.24 230.207 99.36 229.291 98.7C228.411 98.04 227.017 97.27 225.111 96.39C223.534 95.6933 222.232 95.0517 221.206 94.465C220.216 93.8783 219.372 93.1083 218.676 92.155C217.979 91.165 217.631 89.9733 217.631 88.58C217.631 87.1133 218.016 85.7933 218.786 84.62C219.592 83.4467 220.711 82.5117 222.141 81.815C223.607 81.1183 225.312 80.77 227.256 80.77ZM136.28 146.77C138.517 146.77 140.753 147.21 142.99 148.09L142.275 152.16L141.615 152.325C140.588 151.518 139.617 150.932 138.7 150.565C137.783 150.162 136.83 149.96 135.84 149.96C134.263 149.96 133.017 150.382 132.1 151.225C131.183 152.032 130.725 152.967 130.725 154.03C130.725 155.093 131.165 155.955 132.045 156.615C132.962 157.275 134.355 158.008 136.225 158.815C137.875 159.548 139.177 160.208 140.13 160.795C141.12 161.382 141.963 162.17 142.66 163.16C143.393 164.113 143.76 165.287 143.76 166.68C143.76 168.11 143.375 169.448 142.605 170.695C141.835 171.905 140.698 172.895 139.195 173.665C137.728 174.398 135.968 174.765 133.915 174.765C132.632 174.765 131.275 174.618 129.845 174.325C128.452 173.995 127.15 173.518 125.94 172.895L126.435 168.55L126.985 168.33C128.012 169.357 129.203 170.163 130.56 170.75C131.953 171.3 133.237 171.575 134.41 171.575C135.95 171.575 137.215 171.172 138.205 170.365C139.195 169.522 139.69 168.513 139.69 167.34C139.69 166.24 139.232 165.36 138.315 164.7C137.435 164.04 136.042 163.27 134.135 162.39C132.558 161.693 131.257 161.052 130.23 160.465C129.24 159.878 128.397 159.108 127.7 158.155C127.003 157.165 126.655 155.973 126.655 154.58C126.655 153.113 127.04 151.793 127.81 150.62C128.617 149.447 129.735 148.512 131.165 147.815C132.632 147.118 134.337 146.77 136.28 146.77ZM177.079 165.855L177.189 174.435H173.119L173.284 166.185L173.229 162.445L158.324 162.5L158.269 165.855L158.379 174.435H154.309L154.474 166.185L154.309 147.045H158.434L158.324 158.815L165.749 158.87L173.229 158.815L173.119 147.045H177.244L177.079 165.855ZM211.163 174.435H207.038L206.378 171.465L204.948 167.395L198.403 167.34L192.573 167.395L191.088 171.245L190.318 174.435H186.248L196.808 147.045H201.538L211.163 174.435ZM203.793 164.04L199.228 151.06H198.898L193.893 164.04L198.733 164.095L203.793 164.04ZM233.313 163.38C235.549 166.79 238.024 170.145 240.738 173.445L240.683 173.995C239.143 174.472 237.878 174.747 236.888 174.82L236.173 174.38C233.386 170.163 231.278 166.845 229.848 164.425L224.678 164.48V165.855L224.788 174.435H220.718L220.883 166.185L220.718 147.045L230.068 146.99C232.964 146.99 235.183 147.668 236.723 149.025C238.299 150.382 239.088 152.343 239.088 154.91C239.088 156.78 238.574 158.448 237.548 159.915C236.558 161.382 235.146 162.537 233.313 163.38ZM224.733 161.07L229.903 161.235C233.166 160.318 234.798 158.32 234.798 155.24C234.798 153.627 234.321 152.417 233.368 151.61C232.414 150.803 230.966 150.363 229.023 150.29L224.788 150.345L224.733 161.07ZM267.473 170.915L267.803 171.245L267.418 174.435H250.753L250.918 166.185L250.753 147.045H267.528L267.803 147.375L267.473 150.565L260.543 150.345L254.823 150.4L254.768 158.705L260.213 158.76L264.998 158.595L265.273 158.98L264.943 162.225L259.883 162.06L254.768 162.115L254.713 165.855L254.768 171.08L260.158 171.135L267.473 170.915ZM137.71 232.57L137.875 240.435H133.75L133.97 232.57L133.915 230.865L124.62 213.045H129.13L129.68 214.64L135.84 226.41H136.115L142.825 214.805L143.54 213.045H147.94L137.765 230.865L137.71 232.57ZM165.841 212.715C169.838 212.715 172.9 213.888 175.026 216.235C177.19 218.582 178.271 221.9 178.271 226.19C178.271 230.847 177.116 234.458 174.806 237.025C172.533 239.555 169.27 240.82 165.016 240.82C161.056 240.82 157.995 239.628 155.831 237.245C153.668 234.825 152.586 231.397 152.586 226.96C152.586 222.413 153.741 218.912 156.051 216.455C158.361 213.962 161.625 212.715 165.841 212.715ZM165.456 216.18C162.56 216.18 160.396 217.005 158.966 218.655C157.573 220.305 156.876 222.908 156.876 226.465C156.876 230.278 157.573 233.047 158.966 234.77C160.36 236.493 162.486 237.355 165.346 237.355C168.28 237.355 170.461 236.512 171.891 234.825C173.321 233.138 174.036 230.498 174.036 226.905C174.036 223.202 173.321 220.488 171.891 218.765C170.498 217.042 168.353 216.18 165.456 216.18ZM209.492 226.96V230.92C209.528 234.037 208.575 236.457 206.632 238.18C204.725 239.903 201.975 240.765 198.382 240.765C194.825 240.765 192.112 239.922 190.242 238.235C188.372 236.512 187.473 234.073 187.547 230.92L187.602 226.74L187.547 213.045H191.672L191.452 230.26C191.415 232.57 191.983 234.312 193.157 235.485C194.367 236.658 196.163 237.245 198.547 237.245C200.893 237.245 202.672 236.658 203.882 235.485C205.092 234.312 205.678 232.57 205.642 230.26L205.477 213.045H209.657L209.492 226.96ZM233.957 229.38C236.194 232.79 238.669 236.145 241.382 239.445L241.327 239.995C239.787 240.472 238.522 240.747 237.532 240.82L236.817 240.38C234.03 236.163 231.922 232.845 230.492 230.425L225.322 230.48V231.855L225.432 240.435H221.362L221.527 232.185L221.362 213.045L230.712 212.99C233.609 212.99 235.827 213.668 237.367 215.025C238.944 216.382 239.732 218.343 239.732 220.91C239.732 222.78 239.219 224.448 238.192 225.915C237.202 227.382 235.79 228.537 233.957 229.38ZM225.377 227.07L230.547 227.235C233.81 226.318 235.442 224.32 235.442 221.24C235.442 219.627 234.965 218.417 234.012 217.61C233.059 216.803 231.61 216.363 229.667 216.29L225.432 216.345L225.377 227.07ZM138.975 278.715C142.972 278.715 146.033 279.888 148.16 282.235C150.323 284.582 151.405 287.9 151.405 292.19C151.405 296.847 150.25 300.458 147.94 303.025C145.667 305.555 142.403 306.82 138.15 306.82C134.19 306.82 131.128 305.628 128.965 303.245C126.802 300.825 125.72 297.397 125.72 292.96C125.72 288.413 126.875 284.912 129.185 282.455C131.495 279.962 134.758 278.715 138.975 278.715ZM138.59 282.18C135.693 282.18 133.53 283.005 132.1 284.655C130.707 286.305 130.01 288.908 130.01 292.465C130.01 296.278 130.707 299.047 132.1 300.77C133.493 302.493 135.62 303.355 138.48 303.355C141.413 303.355 143.595 302.512 145.025 300.825C146.455 299.138 147.17 296.498 147.17 292.905C147.17 289.202 146.455 286.488 145.025 284.765C143.632 283.042 141.487 282.18 138.59 282.18ZM170.91 278.99C173.807 278.99 176.025 279.687 177.565 281.08C179.142 282.473 179.93 284.49 179.93 287.13C179.93 290.21 178.94 292.63 176.96 294.39C175.017 296.113 172.322 296.975 168.875 296.975H165.52V297.855L165.63 306.435H161.56L161.725 298.185L161.56 279.045L170.91 278.99ZM170.195 293.785C173.825 293.162 175.64 291.053 175.64 287.46C175.64 285.737 175.145 284.453 174.155 283.61C173.202 282.767 171.754 282.308 169.81 282.235L165.63 282.29L165.575 293.675L170.195 293.785ZM193.89 297.855L194 306.435H189.93L190.095 298.185L189.93 279.045H194.055L193.89 297.855ZM229.629 298.24L229.684 306.435H225.284L210.874 285.535H210.599L210.544 297.305L210.654 306.435H206.914L207.079 298.35L206.969 279.045H211.314L225.724 299.945H226.109L225.999 279.21L229.794 278.935L229.629 298.24ZM246.388 297.855L246.498 306.435H242.428L242.593 298.185L242.428 279.045H246.553L246.388 297.855ZM269.278 278.715C273.275 278.715 276.336 279.888 278.463 282.235C280.626 284.582 281.708 287.9 281.708 292.19C281.708 296.847 280.553 300.458 278.243 303.025C275.97 305.555 272.706 306.82 268.453 306.82C264.493 306.82 261.431 305.628 259.268 303.245C257.105 300.825 256.023 297.397 256.023 292.96C256.023 288.413 257.178 284.912 259.488 282.455C261.798 279.962 265.061 278.715 269.278 278.715ZM268.893 282.18C265.996 282.18 263.833 283.005 262.403 284.655C261.01 286.305 260.313 288.908 260.313 292.465C260.313 296.278 261.01 299.047 262.403 300.77C263.796 302.493 265.923 303.355 268.783 303.355C271.716 303.355 273.898 302.512 275.328 300.825C276.758 299.138 277.473 296.498 277.473 292.905C277.473 289.202 276.758 286.488 275.328 284.765C273.935 283.042 271.79 282.18 268.893 282.18ZM314.578 298.24L314.633 306.435H310.233L295.823 285.535H295.548L295.493 297.305L295.603 306.435H291.863L292.028 298.35L291.918 279.045H296.263L310.673 299.945H311.058L310.948 279.21L314.743 278.935L314.578 298.24Z" fill="black" fill-opacity="0.63"/>
<path d="M364.47 191.411C366.032 189.849 366.032 187.316 364.47 185.754L339.014 160.298C337.452 158.736 334.92 158.736 333.357 160.298C331.795 161.86 331.795 164.393 333.357 165.955L355.985 188.583L333.357 211.21C331.795 212.772 331.795 215.305 333.357 216.867C334.92 218.429 337.452 218.429 339.014 216.867L364.47 191.411ZM296.934 192.583H361.642V184.583H296.934V192.583Z" fill="black" fill-opacity="0.7"/>
<defs>
<linearGradient id="paint0_linear" x1="240" y1="0" x2="240" y2="480" gradientUnits="userSpaceOnUse">
<stop stop-color="#FCFF6A"/>
<stop offset="1" stop-color="white"/>
</linearGradient>
</defs>
</svg>
